<?xml version="1.0" ?><svg style="enable-background:new 0 0 512 512;" version="1.1" viewBox="0 0 512 512" xml:space="preserve" xmlns="http://www.w3.org/2000/svg" xmlns:xlink="http://www.w3.org/1999/xlink"><g id="_x32_0_x2C__gps_x2C__navigation_x2C__arrow_x2C__geo_x2C__geolocation"><g><path d="M256.01,39.85c-119.06,0-216.16,97.1-216.16,216.16c0,119.04,97.1,216.14,216.16,216.14    c119.04,0,216.14-97.1,216.14-216.14C472.15,136.95,375.05,39.85,256.01,39.85z" style="fill:#BDC3C7;"/><polygon points="256.01,132.08 354.21,379.95 256.01,358.08 157.82,379.95   " style="fill:#E74C3C;"/><path d="M354.21,389.95c-0.723,0-1.451-0.078-2.174-0.239l-96.026-21.386l-96.016,21.386c-3.615,0.807-7.377-0.454-9.781-3.27    c-2.404-2.817-3.054-6.731-1.69-10.174l98.19-247.871c1.51-3.813,5.195-6.317,9.297-6.317c4.101,0,7.787,2.504,9.297,6.317    l98.2,247.87c1.364,3.443,0.714,7.357-1.689,10.174C359.895,388.694,357.101,389.95,354.21,389.95z M256.01,348.08    c0.729,0,1.458,0.08,2.174,0.239l79.778,17.768L256.01,159.231l-81.942,206.854l79.768-17.767    C254.552,348.16,255.281,348.08,256.01,348.08z"/><path d="M256.01,482.15c-124.705,0-226.16-101.446-226.16-226.141c0-124.705,101.455-226.16,226.16-226.16    c124.694,0,226.14,101.455,226.14,226.16C482.15,380.704,380.704,482.15,256.01,482.15z M256.01,49.85    c-113.677,0-206.16,92.483-206.16,206.16c0,113.666,92.483,206.141,206.16,206.141c113.666,0,206.14-92.475,206.14-206.141    C462.15,142.333,369.676,49.85,256.01,49.85z"/></g></g><g id="Layer_1"/></svg>